<svg width="26" height="16" viewBox="0 0 26 16" fill="none" xmlns="http://www.w3.org/2000/svg">
<path d="M0.0175001 0.76H6.0975C7.40417 0.76 8.48417 1.04667 9.3375 1.62C10.2042 2.19333 10.6375 3.09333 10.6375 4.32C10.6375 5.02667 10.4442 5.66 10.0575 6.22C9.68417 6.76667 9.1775 7.15333 8.5375 7.38C9.4175 7.58 10.0908 7.99333 10.5575 8.62C11.0375 9.24667 11.2775 10.0333 11.2775 10.98C11.2775 13.66 9.4775 15 5.8775 15H0.0175001V0.76ZM1.8575 2.36V6.86H5.2375C5.62417 6.86 5.95083 6.85333 6.2175 6.84C6.4975 6.81333 6.81083 6.76 7.1575 6.68C7.50417 6.6 7.7775 6.48667 7.9775 6.34C8.19083 6.18 8.37083 5.95333 8.5175 5.66C8.6775 5.36667 8.7575 5.01333 8.7575 4.6C8.7575 4.18667 8.69083 3.84 8.5575 3.56C8.42417 3.26667 8.26417 3.04667 8.0775 2.9C7.89083 2.74 7.63083 2.62 7.2975 2.54C6.9775 2.46 6.68417 2.41333 6.4175 2.4C6.16417 2.37333 5.83083 2.36 5.4175 2.36H1.8575ZM1.8575 8.34V13.42H5.6175C6.08417 13.42 6.46417 13.4133 6.7575 13.4C7.05083 13.3733 7.3775 13.3133 7.7375 13.22C8.11083 13.1267 8.40417 12.9933 8.6175 12.82C8.83083 12.6333 9.01083 12.3733 9.1575 12.04C9.30417 11.6933 9.3775 11.28 9.3775 10.8C9.3775 10.4 9.32417 10.0533 9.2175 9.76C9.12417 9.46667 8.9575 9.23333 8.7175 9.06C8.49083 8.88667 8.27083 8.74667 8.0575 8.64C7.8575 8.53333 7.56417 8.46 7.1775 8.42C6.79083 8.38 6.49083 8.36 6.2775 8.36C6.06417 8.34667 5.7375 8.34 5.2975 8.34H1.8575ZM25.7689 9.62C25.6089 11.42 24.9822 12.8267 23.8889 13.84C22.8089 14.84 21.3822 15.34 19.6089 15.34C17.5822 15.34 15.9756 14.6733 14.7889 13.34C13.6022 11.9933 13.0089 10.18 13.0089 7.9C13.0089 5.76667 13.6022 3.99333 14.7889 2.58C15.9889 1.15333 17.6422 0.439999 19.7489 0.439999C21.2556 0.439999 22.5822 0.846666 23.7289 1.66C24.8756 2.47333 25.5156 3.6 25.6489 5.04H23.7689C23.5556 4.10667 23.0889 3.38 22.3689 2.86C21.6489 2.32667 20.7622 2.06 19.7089 2.06C18.1222 2.06 16.9222 2.62 16.1089 3.74C15.3089 4.86 14.9089 6.24 14.9089 7.88C14.9089 9.69333 15.3356 11.12 16.1889 12.16C17.0422 13.2 18.2089 13.72 19.6889 13.72C20.9022 13.72 21.8689 13.3733 22.5889 12.68C23.3089 11.9733 23.7422 10.9533 23.8889 9.62H25.7689Z" fill="#2C2C2C"/>
</svg>
