<svg width="220" height="16" viewBox="0 0 220 16" fill="none" xmlns="http://www.w3.org/2000/svg">
<path d="M0.533125 0.76H6.61313C8.97313 0.76 11.1531 1.7 11.1531 4.32C11.1531 5.72 10.3331 6.92 9.05312 7.38C10.8131 7.78 11.7931 9.1 11.7931 10.98C11.7931 14.26 9.11313 15 6.39313 15H0.533125V0.76ZM2.37313 2.36V6.86H5.75313C7.35313 6.86 9.27313 6.74 9.27313 4.6C9.27313 2.46 7.61313 2.36 5.93313 2.36H2.37313ZM2.37313 8.34V13.42H6.13313C8.03313 13.42 9.89313 13.3 9.89313 10.8C9.89313 8.32 7.71313 8.34 5.81313 8.34H2.37313ZM20.2045 0.76L25.7645 15H23.6645L22.0845 10.64H16.1045L14.4845 15H12.4845L18.0845 0.76H20.2045ZM21.5245 9.14L19.1045 2.56L16.6445 9.14H21.5245ZM37.0933 0.76V2.32L28.2133 13.36H37.3133V15H25.9533V13.4L34.8133 2.4H26.6533V0.76H37.0933ZM50.6998 0.76V15H48.8198V8.34H41.2998V15H39.4198V0.76H41.2998V6.7H48.8198V0.76H50.6998ZM63.7134 0.76V2.4H55.7334V6.86H63.1934V8.44H55.7334V13.36H63.8134V15H53.8534V0.76H63.7134ZM66 0.76H68.06L75.58 12.32V0.76H77.4V15H75.28L67.8 3.58V15H66V0.76ZM86.5136 0.419999C90.9336 0.419999 93.3536 3.52 93.3536 7.76C93.3536 11.94 91.0536 15.34 86.5336 15.34C81.9736 15.34 79.7136 11.86 79.7136 7.72C79.7136 3.28 82.3736 0.419999 86.5136 0.419999ZM86.5136 2.06C83.1536 2.06 81.5936 4.82 81.5936 7.86C81.5936 11.42 83.5336 13.72 86.5536 13.72C89.5336 13.72 91.4736 11.4 91.4736 7.86C91.4736 4.34 89.5336 2.06 86.5136 2.06ZM94.0889 0.76H96.1689L100.269 13.16L104.409 0.76H106.389L101.309 15H99.1489L94.0889 0.76ZM125.562 9.62C125.242 13.24 122.922 15.34 119.402 15.34C115.342 15.34 112.802 12.46 112.802 7.9C112.802 3.82 115.162 0.439999 119.542 0.439999C122.342 0.439999 125.162 2 125.442 5.04H123.562C123.142 3.18 121.622 2.06 119.502 2.06C116.122 2.06 114.702 4.88 114.702 7.88C114.702 11.5 116.522 13.72 119.482 13.72C121.902 13.72 123.382 12.28 123.682 9.62H125.562ZM133.935 0.419999C138.355 0.419999 140.775 3.52 140.775 7.76C140.775 11.94 138.475 15.34 133.955 15.34C129.395 15.34 127.135 11.86 127.135 7.72C127.135 3.28 129.795 0.419999 133.935 0.419999ZM133.935 2.06C130.575 2.06 129.015 4.82 129.015 7.86C129.015 11.42 130.955 13.72 133.975 13.72C136.955 13.72 138.895 11.4 138.895 7.86C138.895 4.34 136.955 2.06 133.935 2.06ZM143.051 0.76H145.111L152.631 12.32V0.76H154.451V15H152.331L144.851 3.58V15H143.051V0.76ZM169.624 9.62C169.304 13.24 166.984 15.34 163.464 15.34C159.404 15.34 156.864 12.46 156.864 7.9C156.864 3.82 159.224 0.439999 163.604 0.439999C166.404 0.439999 169.224 2 169.504 5.04H167.624C167.204 3.18 165.684 2.06 163.564 2.06C160.184 2.06 158.764 4.88 158.764 7.88C158.764 11.5 160.584 13.72 163.544 13.72C165.964 13.72 167.444 12.28 167.744 9.62H169.624ZM171.998 0.76H178.258C180.938 0.76 183.038 1.64 183.038 4.7C183.038 6.36 182.058 7.74 180.598 8.16C182.598 8.58 182.678 9.94 182.758 11.66C182.818 12.8 182.818 14.24 183.578 15H181.418C180.958 14.28 180.978 12.68 180.938 11.86C180.818 9.46 180.198 8.84 177.618 8.84H173.878V15H171.998V0.76ZM173.878 2.36V7.34H177.418C179.258 7.34 181.158 7.16 181.158 4.82C181.158 2.7 179.598 2.36 177.918 2.36H173.878ZM195.549 0.76V2.4H187.569V6.86H195.029V8.44H187.569V13.36H195.649V15H185.689V0.76H195.549ZM207.796 0.76V2.4H203.016V15H201.136V2.4H196.356V0.76H207.796ZM219.26 0.76V2.4H211.28V6.86H218.74V8.44H211.28V13.36H219.36V15H209.4V0.76H219.26Z" fill="#2C2C2C"/>
</svg>
